<?xml version="1.0" standalone="no"?><!DOCTYPE svg PUBLIC "-//W3C//DTD SVG 1.1//EN" "http://www.w3.org/Graphics/SVG/1.1/DTD/svg11.dtd"><svg t="1586266474546" class="icon" viewBox="0 0 1024 1024" version="1.1" xmlns="http://www.w3.org/2000/svg" p-id="1545" width="200" height="200" xmlns:xlink="http://www.w3.org/1999/xlink"><defs><style type="text/css"></style></defs><path d="M512 512m-93.090909 0a93.090909 93.090909 0 1 0 186.181818 0 93.090909 93.090909 0 1 0-186.181818 0Z" fill="#17a0b6" p-id="1546"></path><path d="M512 23.272727a488.727273 488.727273 0 1 0 488.727273 488.727273A488.727273 488.727273 0 0 0 512 23.272727z m0 930.909091a442.181818 442.181818 0 1 1 442.181818-442.181818 442.181818 442.181818 0 0 1-442.181818 442.181818z" fill="#17a0b6" p-id="1547"></path><path d="M512 139.636364a372.363636 372.363636 0 1 0 372.363636 372.363636A372.363636 372.363636 0 0 0 512 139.636364z m324.654545 349.090909H626.036364a116.363636 116.363636 0 0 0-37.003637-63.301818l105.658182-183.156364A325.818182 325.818182 0 0 1 836.654545 488.727273zM512 186.181818a323.258182 323.258182 0 0 1 142.196364 33.047273l-105.658182 182.923636a106.821818 106.821818 0 0 0-73.076364 0l-105.658182-182.923636A323.258182 323.258182 0 0 1 512 186.181818z m69.818182 325.818182a71.447273 71.447273 0 1 1-4.189091-23.272727 69.818182 69.818182 0 0 1 4.189091 23.272727zM329.309091 242.269091l105.658182 183.156364A116.363636 116.363636 0 0 0 397.963636 488.727273H187.345455a325.818182 325.818182 0 0 1 141.963636-246.458182zM187.345455 535.272727h210.618181a116.363636 116.363636 0 0 0 37.003637 63.301818l-105.658182 183.156364A325.818182 325.818182 0 0 1 187.345455 535.272727zM512 837.818182a323.258182 323.258182 0 0 1-142.196364-33.047273l105.658182-182.923636a106.821818 106.821818 0 0 0 73.076364 0l105.658182 182.923636A323.258182 323.258182 0 0 1 512 837.818182z m182.690909-56.087273l-105.890909-183.156364A116.363636 116.363636 0 0 0 626.036364 535.272727h210.618181a325.818182 325.818182 0 0 1-141.963636 246.458182z" fill="#17a0b6" p-id="1548"></path></svg>